<svg xmlns="http://www.w3.org/2000/svg" viewBox="0 0 57.16 43.17"><defs><style>.cls-1{fill:#cacaca;}.cls-2{fill:#fff;}.cls-3{fill:#038ea5;}</style></defs><title>c-card_leader</title><g id="レイヤー_2" data-name="レイヤー 2"><g id="c-card_leader"><path class="cls-1" d="M41.82,38.4v-9c0-4.95,3.38-9,7.52-9s7.52,4,7.52,9v9Z"/><path class="cls-2" d="M49.34,20.74c4,0,7.23,3.89,7.23,8.68v8.68H42.11V29.43c0-4.79,3.24-8.68,7.23-8.68m0-.58c-4.31,0-7.81,4.15-7.81,9.26v9.26H57.16V29.43c0-5.11-3.51-9.26-7.81-9.26Z"/><ellipse class="cls-1" cx="49.34" cy="15.15" rx="6.03" ry="6.99"/><path class="cls-2" d="M49.34,8.39c3.2,0,5.79,3,5.79,6.75s-2.59,6.75-5.79,6.75-5.79-3-5.79-6.75,2.59-6.75,5.79-6.75m0-.48c-3.46,0-6.27,3.25-6.27,7.23s2.81,7.23,6.27,7.23,6.27-3.25,6.27-7.23S52.8,7.91,49.34,7.91Z"/><path class="cls-1" d="M.29,38.4v-9c0-4.95,3.38-9,7.52-9s7.52,4,7.52,9v9Z"/><path class="cls-2" d="M7.81,20.74c4,0,7.23,3.89,7.23,8.68v8.68H.58V29.43c0-4.79,3.24-8.68,7.23-8.68m0-.58C3.51,20.17,0,24.32,0,29.43v9.26H15.63V29.43c0-5.11-3.51-9.26-7.81-9.26Z"/><ellipse class="cls-1" cx="7.81" cy="15.15" rx="6.03" ry="6.99"/><path class="cls-2" d="M7.81,8.39c3.2,0,5.79,3,5.79,6.75S11,21.9,7.81,21.9,2,18.87,2,15.15,4.62,8.39,7.81,8.39m0-.48c-3.46,0-6.27,3.25-6.27,7.23s2.81,7.23,6.27,7.23,6.27-3.25,6.27-7.23S11.27,7.91,7.81,7.91Z"/><path class="cls-1" d="M30.86,39.88V29.79c0-5.56,3.8-10.09,8.46-10.09s8.46,4.53,8.46,10.09V39.88Z"/><path class="cls-2" d="M39.33,20c4.5,0,8.14,4.37,8.14,9.77v9.77H31.19V29.79c0-5.39,3.64-9.77,8.14-9.77m0-.65c-4.85,0-8.79,4.67-8.79,10.42V40.21H48.12V29.79c0-5.74-3.94-10.42-8.79-10.42Z"/><ellipse class="cls-1" cx="39.33" cy="13.72" rx="6.78" ry="7.87"/><path class="cls-2" d="M39.33,6.13c3.6,0,6.51,3.4,6.51,7.6s-2.92,7.6-6.51,7.6-6.51-3.4-6.51-7.6,2.92-7.6,6.51-7.6m0-.54c-3.89,0-7.05,3.65-7.05,8.14s3.16,8.14,7.05,8.14,7.05-3.65,7.05-8.14-3.16-8.14-7.05-8.14Z"/><path class="cls-1" d="M9.93,39.88V29.79c0-5.56,3.8-10.09,8.46-10.09s8.46,4.53,8.46,10.09V39.88Z"/><path class="cls-2" d="M18.4,20c4.5,0,8.14,4.37,8.14,9.77v9.77H10.26V29.79c0-5.39,3.64-9.77,8.14-9.77m0-.65c-4.85,0-8.79,4.67-8.79,10.42V40.21H27.19V29.79c0-5.74-3.94-10.42-8.79-10.42Z"/><ellipse class="cls-1" cx="18.4" cy="13.72" rx="6.78" ry="7.87"/><path class="cls-2" d="M18.4,6.13c3.6,0,6.51,3.4,6.51,7.6s-2.92,7.6-6.51,7.6-6.51-3.4-6.51-7.6,2.92-7.6,6.51-7.6m0-.54c-3.89,0-7.05,3.65-7.05,8.14s3.16,8.14,7.05,8.14,7.05-3.65,7.05-8.14S22.29,5.58,18.4,5.58Z"/><path class="cls-3" d="M19.68,42.81V31.6c0-6.18,4.22-11.21,9.4-11.21s9.41,5,9.41,11.21V42.81Z"/><path class="cls-2" d="M29.09,20.74c5,0,9,4.86,9,10.85V42.45H20V31.6c0-6,4-10.85,9-10.85m0-.72c-5.39,0-9.77,5.19-9.77,11.58V43.17H38.85V31.6c0-6.38-4.38-11.58-9.77-11.58Z"/><path class="cls-3" d="M29.21,21.11a6.11,6.11,0,0,1-4.75-2,4.05,4.05,0,0,1-1-2.93,2.48,2.48,0,0,1-1.61-1.49,3,3,0,0,1-.26-1.3.34.34,0,0,1,0-.09c0-.17-.07-.25-.28-.41a.86.86,0,0,1-.43-.74A1.6,1.6,0,0,0,20.63,11a.89.89,0,0,0-.67-.26h-.21a.36.36,0,0,1-.18-.68c.7-.4,1.53-1,1.54-1.75S20,6.79,20,6.79a.36.36,0,0,1,.18-.67l.11,0a2,2,0,0,0,.56.11c.09,0,.2,0,.24-.07a.86.86,0,0,0,0-.6.36.36,0,0,1,.54-.43,1.13,1.13,0,0,0,.59.22c.37,0,.75-.36,1.24-1.17C25.14,1.39,27.14,1,28.18,1a3.91,3.91,0,0,1,.53,0l0-.26a.36.36,0,0,1,.36-.38,5.42,5.42,0,0,1,3.6,1.8c3.81.8,4.33,3.52,4.4,4.35,0,.41,1,.65,1.41.7a.36.36,0,0,1,.14.67l-.88.5a10.7,10.7,0,0,0,.71,2.79.36.36,0,0,1-.57.41l-.29-.25.17.91a.36.36,0,0,1-.33.43l-.75.06a2.6,2.6,0,0,1-.12,2,2.48,2.48,0,0,1-1.61,1.49,4.05,4.05,0,0,1-1,2.93A6.11,6.11,0,0,1,29.21,21.11Z"/><path class="cls-2" d="M29.06.72a5.22,5.22,0,0,1,3.42,1.76c3.6.71,4.15,3.2,4.22,4s1.73,1,1.73,1l-1.06.61a10.37,10.37,0,0,0,.74,3.13L37,10.41l.36,1.9-1.11.09-.18.11a1.91,1.91,0,0,1,.11,2.06,2,2,0,0,1-1.55,1.31h-.13c.43,2.46-1.72,4.87-5.32,4.87s-5.76-2.41-5.32-4.87h-.13a2,2,0,0,1-1.55-1.31A2.62,2.62,0,0,1,22,13.32l0,0c0-.66-.74-.72-.71-1.13.14-1.67-.84-1.86-1.29-1.86l-.21,0c3.6-2,.43-3.89.43-3.89a2.28,2.28,0,0,0,.67.12c1,0,.55-1.16.55-1.16a1.47,1.47,0,0,0,.79.28c.56,0,1-.47,1.55-1.34,1.58-2.59,3.38-3,4.44-3a3,3,0,0,1,.92.13l0-.74m0-.72a.72.72,0,0,0-.72.62h-.16c-1.12,0-3.26.44-5.06,3.39-.53.86-.81,1-.93,1a.82.82,0,0,1-.4-.16.72.72,0,0,0-1.07.86,1,1,0,0,1,0,.17,2,2,0,0,1-.37-.08.72.72,0,0,0-.58,1.32c.24.14.94.68.93,1.21s-.48.94-1.35,1.43a.72.72,0,0,0,.36,1.35H20a.55.55,0,0,1,.4.14,1.31,1.31,0,0,1,.17.94,1.21,1.21,0,0,0,.56,1.05,1.1,1.1,0,0,1,.15.14.74.74,0,0,0,0,.08,3.37,3.37,0,0,0,.29,1.45,3,3,0,0,0,1.56,1.61,4.43,4.43,0,0,0,1.08,2.89,6.47,6.47,0,0,0,5,2.09,6.47,6.47,0,0,0,5-2.09,4.43,4.43,0,0,0,1.08-2.89,3,3,0,0,0,1.56-1.61,3.18,3.18,0,0,0,.26-1.81l.31,0a.72.72,0,0,0,.65-.85l0-.15h0a.72.72,0,0,0,.67-1,11,11,0,0,1-.66-2.45l.68-.39a.72.72,0,0,0-.28-1.35,2.07,2.07,0,0,1-1.09-.4C37.27,4.67,36,2.53,32.84,1.83A5.73,5.73,0,0,0,29.06,0Z"/></g></g></svg>